<?xml version="1.0" encoding="utf-8"?>
<!-- Generator: Adobe Illustrator 21.0.0, SVG Export Plug-In . SVG Version: 6.00 Build 0)  -->
<svg version="1.1" id="Layer_1" xmlns="http://www.w3.org/2000/svg" xmlns:xlink="http://www.w3.org/1999/xlink" x="0px" y="0px"
	 viewBox="0 0 114 114" style="enable-background:new 0 0 114 114;" xml:space="preserve">
<g>
	<g>
		<path d="M83.2,9.3h-8.2C70.8,3.9,64.3,0.5,57,0.5c-7.3,0-13.8,3.5-17.9,8.9h-8.2C17.7,9.3,7,20,7,33.2V81
			c0,17.9,14.6,32.5,32.5,32.5h34.9c17.9,0,32.5-14.6,32.5-32.5V33.2C107,20,96.3,9.3,83.2,9.3z M57,5C67,5,75.1,13.1,75.1,23
			S67,41.1,57,41.1S38.9,33,38.9,23S47,5,57,5z M102.5,81L102.5,81c0,15.5-12.6,28-28,28H39.5c-15.5,0-28-12.6-28-28V33.2
			c0-10.7,8.7-19.3,19.3-19.3h5.6c-1.3,2.8-2,5.9-2,9.2c0,12.4,10.1,22.6,22.6,22.6S79.6,35.5,79.6,23c0-3.3-0.7-6.4-2-9.2h5.6
			c10.7,0,19.3,8.7,19.3,19.3L102.5,81L102.5,81z"/>
	</g>
</g>
<g>
	<g>
		<path d="M57,7.9c-1.2,0-2.3,1-2.3,2.3V23c0,1.2,1,2.3,2.3,2.3c1.2,0,2.3-1,2.3-2.3V10.1C59.3,8.9,58.2,7.9,57,7.9z"/>
	</g>
</g>
<g>
	<g>
		<path d="M16.5,40.8c-1.2,0-2.3,1-2.3,2.3v33.1c0,1.2,1,2.3,2.3,2.3s2.3-1,2.3-2.3V43C18.7,41.8,17.7,40.8,16.5,40.8z"/>
	</g>
</g>
<g>
	<g>
		<path d="M16.5,31.3c-1.2,0-2.3,1-2.3,2.3v2.3c0,1.2,1,2.3,2.3,2.3s2.3-1,2.3-2.3v-2.3C18.7,32.3,17.7,31.3,16.5,31.3z"/>
	</g>
</g>
</svg>
