<?xml version="1.0" standalone="no"?>
<!DOCTYPE svg PUBLIC "-//W3C//DTD SVG 20010904//EN"
 "http://www.w3.org/TR/2001/REC-SVG-20010904/DTD/svg10.dtd">
<svg version="1.0" xmlns="http://www.w3.org/2000/svg"
 width="16.000000pt" height="16.000000pt" viewBox="0 0 16.000000 16.000000"
 preserveAspectRatio="xMidYMid meet">
<metadata>
Created by potrace 1.11, written by Peter Selinger 2001-2013
</metadata>
<g transform="translate(0.000000,16.000000) scale(0.006154,-0.006154)"
fill="#000000" stroke="none">
<path d="M1081 2584 c-470 -79 -875 -430 -1020 -886 -267 -841 358 -1698 1239
-1698 720 0 1300 580 1300 1300 0 637 -464 1183 -1090 1285 -116 18 -315 18
-429 -1z m371 -531 c55 -25 129 -90 160 -142 12 -20 23 -38 24 -40 2 -2 20 11
41 29 53 47 131 80 206 87 130 12 269 -57 335 -167 44 -75 55 -120 50 -220 -5
-98 -33 -163 -102 -232 -80 -79 -156 -103 -371 -114 -134 -6 -241 -20 -180
-23 39 -2 136 -42 173 -72 46 -37 90 -108 107 -174 17 -63 21 -223 6 -238 -4
-4 -239 -21 -522 -37 -283 -16 -530 -31 -550 -32 l-36 -3 -42 220 c-24 121
-45 230 -48 243 -4 17 -1 22 15 22 52 0 171 73 211 129 28 39 24 39 -24 1 -89
-71 -237 -91 -352 -48 -81 30 -171 121 -202 202 -27 72 -30 185 -7 254 34 101
134 196 239 227 107 32 243 7 326 -60 l45 -36 18 38 c48 97 126 168 219 199
64 20 201 14 261 -13z m448 -1430 c0 -57 21 -54 -544 -80 -290 -14 -530 -23
-533 -20 -3 4 -9 24 -13 47 l-7 40 66 1 c70 1 997 35 1019 38 7 0 12 -10 12
-26z"/>
</g>
</svg>
